<?xml version="1.0" encoding="UTF-8" standalone="no"?>
<!-- Created with Inkscape (http://www.inkscape.org/) -->

<svg
   xmlns:dc="http://purl.org/dc/elements/1.1/"
   xmlns:cc="http://creativecommons.org/ns#"
   xmlns:rdf="http://www.w3.org/1999/02/22-rdf-syntax-ns#"
   xmlns:svg="http://www.w3.org/2000/svg"
   xmlns="http://www.w3.org/2000/svg"
   xmlns:sodipodi="http://sodipodi.sourceforge.net/DTD/sodipodi-0.dtd"
   xmlns:inkscape="http://www.inkscape.org/namespaces/inkscape"
   id="svg5230"
   version="1.1"
   inkscape:version="0.48.5 r10040"
   width="1000.789"
   height="279.26404"
   xml:space="preserve"
   sodipodi:docname="A.svg"><metadata
     id="metadata5236"><rdf:RDF><cc:Work
         rdf:about=""><dc:format>image/svg+xml</dc:format><dc:type
           rdf:resource="http://purl.org/dc/dcmitype/StillImage" /><dc:title></dc:title></cc:Work></rdf:RDF></metadata><defs
     id="defs5234"><clipPath
       clipPathUnits="userSpaceOnUse"
       id="clipPath8570"><path
         d="m 413.874,157.641 -17.903,0 0,-8.817 17.903,0 0,8.817 z"
         id="path8572"
         inkscape:connector-curvature="0" /></clipPath><clipPath
       clipPathUnits="userSpaceOnUse"
       id="clipPath8582"><path
         d="m 437.33,157.801 -18.9,0 0,-8.81 18.9,0 0,8.81 z"
         id="path8584"
         inkscape:connector-curvature="0" /></clipPath><clipPath
       clipPathUnits="userSpaceOnUse"
       id="clipPath8594"><path
         d="m 457.322,155.224 -18.753,0 0,-3.75 18.753,0 0,3.75 z"
         id="path8596"
         inkscape:connector-curvature="0" /></clipPath><clipPath
       clipPathUnits="userSpaceOnUse"
       id="clipPath8606"><path
         d="m 565.698,156.304 -18.354,0 0,-5.995 18.354,0 0,5.995 z"
         id="path8608"
         inkscape:connector-curvature="0" /></clipPath><clipPath
       clipPathUnits="userSpaceOnUse"
       id="clipPath8618"><path
         d="m 589.354,156.446 -18.244,0 0,-7.758 18.244,0 0,7.758 z"
         id="path8620"
         inkscape:connector-curvature="0" /></clipPath><clipPath
       clipPathUnits="userSpaceOnUse"
       id="clipPath8630"><path
         d="m 589.355,165.339 -18.286,0 0,-8.394 18.286,0 0,8.394 z"
         id="path8632"
         inkscape:connector-curvature="0" /></clipPath><clipPath
       clipPathUnits="userSpaceOnUse"
       id="clipPath8642"><path
         d="m 609.127,158.156 -17.534,0 0,-9.908 17.534,0 0,9.908 z"
         id="path8644"
         inkscape:connector-curvature="0" /></clipPath><clipPath
       clipPathUnits="userSpaceOnUse"
       id="clipPath8654"><path
         d="m 633.199,165.403 -18.789,0 0,-7.485 18.789,0 0,7.485 z"
         id="path8656"
         inkscape:connector-curvature="0" /></clipPath><clipPath
       clipPathUnits="userSpaceOnUse"
       id="clipPath8734"><path
         d="m 633.401,154.092 -18.858,0 0,-4.2719 18.858,0 0,4.2719 z"
         id="path8736"
         inkscape:connector-curvature="0" /></clipPath><clipPath
       clipPathUnits="userSpaceOnUse"
       id="clipPath9274"><path
         d="m 1045.67,433.766 6.96,-13.169 -16.45,-8.693 -6.97,13.172 16.46,8.69"
         id="path9276"
         inkscape:connector-curvature="0" /></clipPath><clipPath
       clipPathUnits="userSpaceOnUse"
       id="clipPath9280"><path
         d="m 1045.67,433.766 6.96,-13.169 -16.45,-8.693 -6.97,13.172 16.46,8.69"
         id="path9282"
         inkscape:connector-curvature="0" /></clipPath><clipPath
       clipPathUnits="userSpaceOnUse"
       id="clipPath9286"><path
         d="m 1045.67,433.768 6.96,-13.171 -16.45,-8.693 -6.97,13.172 16.46,8.692"
         id="path9288"
         inkscape:connector-curvature="0" /></clipPath><clipPath
       clipPathUnits="userSpaceOnUse"
       id="clipPath9292"><path
         d="m 1045.67,433.768 6.96,-13.171 -16.46,-8.693 -6.96,13.172 16.46,8.692"
         id="path9294"
         inkscape:connector-curvature="0" /></clipPath><linearGradient
       x1="0"
       y1="0"
       x2="1"
       y2="0"
       gradientUnits="userSpaceOnUse"
       gradientTransform="matrix(2.2585,-4.2732,4.2792,2.2602,1039.43,425.649)"
       spreadMethod="pad"
       id="linearGradient9304"><stop
         style="stop-opacity:1;stop-color:#ed1b2d"
         offset="0"
         id="stop9306" /><stop
         style="stop-opacity:1;stop-color:#ed1b2d"
         offset="1"
         id="stop9308" /></linearGradient><clipPath
       clipPathUnits="userSpaceOnUse"
       id="clipPath9344"><path
         d="m 1045.91,432.937 6.18,-11.9 -14.8,-7.686 -6.18,11.898 14.8,7.688"
         id="path9346"
         inkscape:connector-curvature="0" /></clipPath><clipPath
       clipPathUnits="userSpaceOnUse"
       id="clipPath9350"><path
         d="m 1045.91,432.936 6.18,-11.899 -14.8,-7.687 -6.18,11.899 14.8,7.687"
         id="path9352"
         inkscape:connector-curvature="0" /></clipPath><clipPath
       clipPathUnits="userSpaceOnUse"
       id="clipPath9356"><path
         d="m 1045.91,432.936 6.18,-11.899 -14.8,-7.687 -6.18,11.903 14.8,7.683"
         id="path9358"
         inkscape:connector-curvature="0" /></clipPath><clipPath
       clipPathUnits="userSpaceOnUse"
       id="clipPath9362"><path
         d="m 1045.91,432.936 6.18,-11.899 -14.8,-7.687 -6.18,11.903 14.8,7.683"
         id="path9364"
         inkscape:connector-curvature="0" /></clipPath><linearGradient
       x1="0"
       y1="0"
       x2="1"
       y2="0"
       gradientUnits="userSpaceOnUse"
       gradientTransform="matrix(2.7049,-5.2039,5.208,2.7036,1039.86,426.544)"
       spreadMethod="pad"
       id="linearGradient9374"><stop
         style="stop-opacity:1;stop-color:#ed1b2d"
         offset="0"
         id="stop9376" /><stop
         style="stop-opacity:1;stop-color:#ed1b2d"
         offset="1"
         id="stop9378" /></linearGradient><clipPath
       clipPathUnits="userSpaceOnUse"
       id="clipPath9410"><path
         d="m 1048.9,431.869 3.3,-4.058 -4.2,-3.413 -3.31,4.062 4.21,3.409"
         id="path9412"
         inkscape:connector-curvature="0" /></clipPath><clipPath
       clipPathUnits="userSpaceOnUse"
       id="clipPath9416"><path
         d="m 1048.9,431.869 3.3,-4.058 -4.2,-3.413 -3.31,4.062 4.21,3.409"
         id="path9418"
         inkscape:connector-curvature="0" /></clipPath><clipPath
       clipPathUnits="userSpaceOnUse"
       id="clipPath9422"><path
         d="m 1048.9,431.869 3.3,-4.058 -4.2,-3.413 -3.31,4.062 4.21,3.409"
         id="path9424"
         inkscape:connector-curvature="0" /></clipPath><clipPath
       clipPathUnits="userSpaceOnUse"
       id="clipPath9428"><path
         d="m 1048.9,431.869 3.3,-4.058 -4.2,-3.413 -3.31,4.062 4.21,3.409"
         id="path9430"
         inkscape:connector-curvature="0" /></clipPath><linearGradient
       x1="0"
       y1="0"
       x2="1"
       y2="0"
       gradientUnits="userSpaceOnUse"
       gradientTransform="matrix(1.4165,-1.7398,1.7421,1.413,1048.08,428.588)"
       spreadMethod="pad"
       id="linearGradient9440"><stop
         style="stop-opacity:1;stop-color:#4d74b9"
         offset="0"
         id="stop9442" /><stop
         style="stop-opacity:1;stop-color:#314b7d"
         offset="1"
         id="stop9444" /></linearGradient><clipPath
       clipPathUnits="userSpaceOnUse"
       id="clipPath9464"><path
         d="m 1033.38,423.46 1.15,-4.202 -5.59,-1.554 -1.16,4.205 5.6,1.551"
         id="path9466"
         inkscape:connector-curvature="0" /></clipPath><clipPath
       clipPathUnits="userSpaceOnUse"
       id="clipPath9470"><path
         d="m 1033.38,423.46 1.15,-4.202 -5.59,-1.554 -1.16,4.205 5.6,1.551"
         id="path9472"
         inkscape:connector-curvature="0" /></clipPath><clipPath
       clipPathUnits="userSpaceOnUse"
       id="clipPath9476"><path
         d="m 1033.38,423.46 1.16,-4.202 -5.6,-1.554 -1.16,4.205 5.6,1.551"
         id="path9478"
         inkscape:connector-curvature="0" /></clipPath><clipPath
       clipPathUnits="userSpaceOnUse"
       id="clipPath9482"><path
         d="m 1033.38,423.46 1.16,-4.202 -5.6,-1.554 -1.16,4.205 5.6,1.551"
         id="path9484"
         inkscape:connector-curvature="0" /></clipPath><linearGradient
       x1="0"
       y1="0"
       x2="1"
       y2="0"
       gradientUnits="userSpaceOnUse"
       gradientTransform="matrix(0.85515,-3.0989,3.0993,0.85883,1030.77,422.001)"
       spreadMethod="pad"
       id="linearGradient9494"><stop
         style="stop-opacity:1;stop-color:#ed1b2d"
         offset="0"
         id="stop9496" /><stop
         style="stop-opacity:1;stop-color:#ed1b2d"
         offset="1"
         id="stop9498" /></linearGradient><clipPath
       clipPathUnits="userSpaceOnUse"
       id="clipPath9510"><path
         d="m 1049.67,423.749 1.57,-4.004 -5.25,-2.058 -1.56,4 5.24,2.062"
         id="path9512"
         inkscape:connector-curvature="0" /></clipPath><clipPath
       clipPathUnits="userSpaceOnUse"
       id="clipPath9516"><path
         d="m 1049.67,423.749 1.57,-4.004 -5.25,-2.057 -1.56,4 5.24,2.061"
         id="path9518"
         inkscape:connector-curvature="0" /></clipPath><clipPath
       clipPathUnits="userSpaceOnUse"
       id="clipPath9522"><path
         d="m 1049.67,423.749 1.57,-4.004 -5.25,-2.057 -1.56,4 5.24,2.061"
         id="path9524"
         inkscape:connector-curvature="0" /></clipPath><clipPath
       clipPathUnits="userSpaceOnUse"
       id="clipPath9528"><path
         d="m 1049.67,423.749 1.57,-4.004 -5.25,-2.057 -1.56,4 5.24,2.061"
         id="path9530"
         inkscape:connector-curvature="0" /></clipPath><linearGradient
       x1="0"
       y1="0"
       x2="1"
       y2="0"
       gradientUnits="userSpaceOnUse"
       gradientTransform="matrix(0.67753,-1.7317,1.7326,0.68033,1047.6,421.345)"
       spreadMethod="pad"
       id="linearGradient9540"><stop
         style="stop-opacity:1;stop-color:#ed1b2d"
         offset="0"
         id="stop9542" /><stop
         style="stop-opacity:1;stop-color:#ed1b2d"
         offset="1"
         id="stop9544" /></linearGradient><clipPath
       clipPathUnits="userSpaceOnUse"
       id="clipPath9556"><path
         d="m 1049.16,423.453 1.62,-3.516 -4.64,-2.135 -1.62,3.514 4.64,2.137"
         id="path9558"
         inkscape:connector-curvature="0" /></clipPath><clipPath
       clipPathUnits="userSpaceOnUse"
       id="clipPath9562"><path
         d="m 1049.16,423.453 1.62,-3.515 -4.64,-2.136 -1.62,3.514 4.64,2.137"
         id="path9564"
         inkscape:connector-curvature="0" /></clipPath><clipPath
       clipPathUnits="userSpaceOnUse"
       id="clipPath9568"><path
         d="m 1049.16,423.453 1.62,-3.515 -4.64,-2.136 -1.62,3.515 4.64,2.136"
         id="path9570"
         inkscape:connector-curvature="0" /></clipPath><clipPath
       clipPathUnits="userSpaceOnUse"
       id="clipPath9574"><path
         d="m 1049.16,423.456 1.63,-3.518 -4.65,-2.136 -1.62,3.515 4.64,2.139"
         id="path9576"
         inkscape:connector-curvature="0" /></clipPath><linearGradient
       x1="0"
       y1="0"
       x2="1"
       y2="0"
       gradientUnits="userSpaceOnUse"
       gradientTransform="matrix(1.2309,-2.6682,2.6687,1.2281,1047,422.018)"
       spreadMethod="pad"
       id="linearGradient9586"><stop
         style="stop-opacity:1;stop-color:#ed1b2d"
         offset="0"
         id="stop9588" /><stop
         style="stop-opacity:1;stop-color:#ed1b2d"
         offset="1"
         id="stop9590" /></linearGradient><clipPath
       clipPathUnits="userSpaceOnUse"
       id="clipPath9654"><path
         d="m 1032.6,423.911 2.22,-4.124 -5.04,-2.708 -2.22,4.118 5.04,2.714"
         id="path9656"
         inkscape:connector-curvature="0" /></clipPath><clipPath
       clipPathUnits="userSpaceOnUse"
       id="clipPath9660"><path
         d="m 1032.6,423.911 2.22,-4.124 -5.04,-2.708 -2.22,4.118 5.04,2.714"
         id="path9662"
         inkscape:connector-curvature="0" /></clipPath><clipPath
       clipPathUnits="userSpaceOnUse"
       id="clipPath9666"><path
         d="m 1032.6,423.911 2.22,-4.124 -5.04,-2.708 -2.22,4.118 5.04,2.714"
         id="path9668"
         inkscape:connector-curvature="0" /></clipPath><clipPath
       clipPathUnits="userSpaceOnUse"
       id="clipPath9672"><path
         d="m 1032.6,423.911 2.22,-4.124 -5.04,-2.708 -2.22,4.118 5.04,2.714"
         id="path9674"
         inkscape:connector-curvature="0" /></clipPath><linearGradient
       x1="0"
       y1="0"
       x2="1"
       y2="0"
       gradientUnits="userSpaceOnUse"
       gradientTransform="matrix(1.6848,-3.1253,3.1318,1.6863,1030.26,422.185)"
       spreadMethod="pad"
       id="linearGradient9684"><stop
         style="stop-opacity:1;stop-color:#ed1b2d"
         offset="0"
         id="stop9686" /><stop
         style="stop-opacity:1;stop-color:#ed1b2d"
         offset="1"
         id="stop9688" /></linearGradient><clipPath
       clipPathUnits="userSpaceOnUse"
       id="clipPath9712"><path
         d="m 1030.17,420.458 0.01,3.007 3.11,-0.009 -0.01,-3.01 -3.11,0.012"
         id="path9714"
         inkscape:connector-curvature="0" /></clipPath><clipPath
       clipPathUnits="userSpaceOnUse"
       id="clipPath9718"><path
         d="m 1030.17,420.458 0.01,3.007 3.11,-0.009 -0.01,-3.01 -3.11,0.012"
         id="path9720"
         inkscape:connector-curvature="0" /></clipPath><clipPath
       clipPathUnits="userSpaceOnUse"
       id="clipPath9724"><path
         d="m 1030.17,420.458 0.01,3.007 3.11,-0.009 -0.01,-3.01 -3.11,0.012"
         id="path9726"
         inkscape:connector-curvature="0" /></clipPath><clipPath
       clipPathUnits="userSpaceOnUse"
       id="clipPath9730"><path
         d="m 1030.17,420.458 0.01,3.007 3.11,-0.009 -0.01,-3.01 -3.11,0.012"
         id="path9732"
         inkscape:connector-curvature="0" /></clipPath><linearGradient
       x1="0"
       y1="0"
       x2="1"
       y2="0"
       gradientUnits="userSpaceOnUse"
       gradientTransform="matrix(0.01032,3.1821,-3.1888,0.008815,1031.73,420.364)"
       spreadMethod="pad"
       id="linearGradient9742"><stop
         style="stop-opacity:1;stop-color:#636466"
         offset="0"
         id="stop9744" /><stop
         style="stop-opacity:1;stop-color:#231f20"
         offset="1"
         id="stop9746" /></linearGradient><clipPath
       clipPathUnits="userSpaceOnUse"
       id="clipPath9766"><path
         d="m 1047.84,420.807 0.01,2.745 2.75,-0.009 -0.01,-2.744 -2.75,0.008"
         id="path9768"
         inkscape:connector-curvature="0" /></clipPath><clipPath
       clipPathUnits="userSpaceOnUse"
       id="clipPath9772"><path
         d="m 1047.84,420.807 0.01,2.745 2.75,-0.009 -0.01,-2.744 -2.75,0.008"
         id="path9774"
         inkscape:connector-curvature="0" /></clipPath><clipPath
       clipPathUnits="userSpaceOnUse"
       id="clipPath9778"><path
         d="m 1047.84,420.807 0.01,2.745 2.75,-0.009 -0.01,-2.744 -2.75,0.008"
         id="path9780"
         inkscape:connector-curvature="0" /></clipPath><clipPath
       clipPathUnits="userSpaceOnUse"
       id="clipPath9784"><path
         d="m 1047.84,420.807 0.01,2.745 2.75,-0.009 -0.01,-2.744 -2.75,0.008"
         id="path9786"
         inkscape:connector-curvature="0" /></clipPath><linearGradient
       x1="0"
       y1="0"
       x2="1"
       y2="0"
       gradientUnits="userSpaceOnUse"
       gradientTransform="matrix(0.01032,2.7149,-2.714,0.008815,1049.23,420.71)"
       spreadMethod="pad"
       id="linearGradient9796"><stop
         style="stop-opacity:1;stop-color:#636466"
         offset="0"
         id="stop9798" /><stop
         style="stop-opacity:1;stop-color:#231f20"
         offset="1"
         id="stop9800" /></linearGradient><clipPath
       clipPathUnits="userSpaceOnUse"
       id="clipPath9860"><path
         d="m 1035.63,421.095 1,-1.927 -3.02,-1.571 -1,1.927 3.02,1.571"
         id="path9862"
         inkscape:connector-curvature="0" /></clipPath><clipPath
       clipPathUnits="userSpaceOnUse"
       id="clipPath9866"><path
         d="m 1035.63,421.095 1,-1.927 -3.02,-1.571 -1,1.927 3.02,1.571"
         id="path9868"
         inkscape:connector-curvature="0" /></clipPath><clipPath
       clipPathUnits="userSpaceOnUse"
       id="clipPath9872"><path
         d="m 1035.63,421.095 1,-1.927 -3.02,-1.571 -1,1.927 3.02,1.571"
         id="path9874"
         inkscape:connector-curvature="0" /></clipPath><clipPath
       clipPathUnits="userSpaceOnUse"
       id="clipPath9878"><path
         d="m 1035.63,421.095 1,-1.927 -3.02,-1.571 -1,1.927 3.02,1.571"
         id="path9880"
         inkscape:connector-curvature="0" /></clipPath><linearGradient
       x1="0"
       y1="0"
       x2="1"
       y2="0"
       gradientUnits="userSpaceOnUse"
       gradientTransform="matrix(2.7212,-5.2343,5.2347,2.7236,1032.85,422.883)"
       spreadMethod="pad"
       id="linearGradient9890"><stop
         style="stop-opacity:1;stop-color:#ed1b2d"
         offset="0"
         id="stop9892" /><stop
         style="stop-opacity:1;stop-color:#ed1b2d"
         offset="1"
         id="stop9894" /></linearGradient><clipPath
       clipPathUnits="userSpaceOnUse"
       id="clipPath9902"><path
         d="m 1033.84,421.062 0.68,-1.309 -1.54,-0.799 -0.68,1.309 1.54,0.799"
         id="path9904"
         inkscape:connector-curvature="0" /></clipPath><clipPath
       clipPathUnits="userSpaceOnUse"
       id="clipPath9908"><path
         d="m 1033.84,421.062 0.68,-1.309 -1.54,-0.799 -0.68,1.309 1.54,0.799"
         id="path9910"
         inkscape:connector-curvature="0" /></clipPath><clipPath
       clipPathUnits="userSpaceOnUse"
       id="clipPath9914"><path
         d="m 1033.84,421.062 0.68,-1.309 -1.54,-0.799 -0.68,1.309 1.54,0.799"
         id="path9916"
         inkscape:connector-curvature="0" /></clipPath><clipPath
       clipPathUnits="userSpaceOnUse"
       id="clipPath9920"><path
         d="m 1033.84,421.065 0.68,-1.312 -1.54,-0.799 -0.68,1.309 1.54,0.802"
         id="path9922"
         inkscape:connector-curvature="0" /></clipPath><linearGradient
       x1="0"
       y1="0"
       x2="1"
       y2="0"
       gradientUnits="userSpaceOnUse"
       gradientTransform="matrix(2.72,-5.2331,5.232,2.7187,1032.12,422.463)"
       spreadMethod="pad"
       id="linearGradient9932"><stop
         style="stop-opacity:1;stop-color:#ed1b2d"
         offset="0"
         id="stop9934" /><stop
         style="stop-opacity:1;stop-color:#ed1b2d"
         offset="1"
         id="stop9936" /></linearGradient><clipPath
       clipPathUnits="userSpaceOnUse"
       id="clipPath10512"><path
         d="m 241.471,463.996 -12.488,0 0,-10.286 12.488,0 0,10.286 z"
         id="path10514"
         inkscape:connector-curvature="0" /></clipPath><clipPath
       clipPathUnits="userSpaceOnUse"
       id="clipPath10612"><path
         d="m 241.678,480.87 -15.734,0 0,-10.831 15.734,0 0,10.831 z"
         id="path10614"
         inkscape:connector-curvature="0" /></clipPath><clipPath
       clipPathUnits="userSpaceOnUse"
       id="clipPath10624"><path
         d="m 232.069,445.27 12.238,0 0,-8.428 -12.238,0 0,8.428 z"
         id="path10626"
         inkscape:connector-curvature="0" /></clipPath><clipPath
       clipPathUnits="userSpaceOnUse"
       id="clipPath10636"><path
         d="m 196.309,362.597 -6.849,0 0,6.848 6.849,0 0,-6.848"
         id="path10638"
         inkscape:connector-curvature="0" /></clipPath><clipPath
       clipPathUnits="userSpaceOnUse"
       id="clipPath10648"><path
         d="m 196.309,300.898 -6.849,0 0,6.848 6.849,0 0,-6.848"
         id="path10650"
         inkscape:connector-curvature="0" /></clipPath><clipPath
       clipPathUnits="userSpaceOnUse"
       id="clipPath10660"><path
         d="m 200.953,361.086 -9.342,0 0,-8.196 9.342,0 0,8.196 z"
         id="path10662"
         inkscape:connector-curvature="0" /></clipPath><clipPath
       clipPathUnits="userSpaceOnUse"
       id="clipPath10672"><path
         d="m 264.499,225.803 -18.337,0 0,-5.371 18.337,0 0,5.371 z"
         id="path10674"
         inkscape:connector-curvature="0" /></clipPath><clipPath
       clipPathUnits="userSpaceOnUse"
       id="clipPath10684"><path
         d="m 227.129,534.689 -32.953,0 0,-9.996 32.953,0 0,9.996 z"
         id="path10686"
         inkscape:connector-curvature="0" /></clipPath><clipPath
       clipPathUnits="userSpaceOnUse"
       id="clipPath10696"><path
         d="m 192.838,379.879 9.04,0 0,-8.925 -9.04,0 0,8.925 z"
         id="path10698"
         inkscape:connector-curvature="0" /></clipPath><clipPath
       clipPathUnits="userSpaceOnUse"
       id="clipPath10708"><path
         d="m 192.838,379.993 9.04,0 0,-0.11401 -9.04,0 0,0.11401 z"
         id="path10710"
         inkscape:connector-curvature="0" /></clipPath><clipPath
       clipPathUnits="userSpaceOnUse"
       id="clipPath10720"><path
         d="m 219.979,327.014 -9.004,0 0,-9.219 9.004,0 0,9.219 z"
         id="path10722"
         inkscape:connector-curvature="0" /></clipPath><clipPath
       clipPathUnits="userSpaceOnUse"
       id="clipPath10732"><path
         d="m 191.347,317.508 -9.639,0 0,-7.541 9.639,0 0,7.541 z"
         id="path10734"
         inkscape:connector-curvature="0" /></clipPath></defs><sodipodi:namedview
     pagecolor="#ffffff"
     bordercolor="#666666"
     borderopacity="1"
     objecttolerance="10"
     gridtolerance="10"
     guidetolerance="10"
     inkscape:pageopacity="0"
     inkscape:pageshadow="2"
     inkscape:window-width="1058"
     inkscape:window-height="1042"
     id="namedview5232"
     showgrid="false"
     showguides="true"
     inkscape:guide-bbox="true"
     fit-margin-left="0.5"
     fit-margin-bottom="0.5"
     fit-margin-top="0.5"
     fit-margin-right="0.5"
     inkscape:zoom="0.7868529"
     inkscape:cx="510.66086"
     inkscape:cy="14.350574"
     inkscape:window-x="855"
     inkscape:window-y="-21"
     inkscape:window-maximized="0"
     inkscape:current-layer="g5238"><inkscape:grid
       type="xygrid"
       id="grid16791"
       empspacing="5"
       visible="true"
       enabled="true"
       snapvisiblegridlinesonly="true"
       originx="-1832.69px"
       originy="-573.95268px" /></sodipodi:namedview><g
     id="g5238"
     inkscape:groupmode="layer"
     inkscape:label="TerminalGuideMap"
     transform="matrix(1.25,0,0,-1.25,-1832.69,853.21673)"><g
       id="g26430"
       transform="matrix(8.8585623,0,0,8.8585623,1484.278,583.78133)"><path
         d="m 0,0 65.118,0.003 -1.916,11.104 -65.203,0 L 0,0 z"
         style="fill:#231f20;fill-opacity:1;fill-rule:nonzero;stroke:none"
         id="path26432"
         inkscape:connector-curvature="0" /></g><g
       id="g26434"
       transform="matrix(8.8585623,0,0,8.8585623,1756.2288,662.23188)"><path
         d="m 0,0 4.376,0 0,-0.592 -3.692,0 0,-1.584 3.552,0 0,-0.587 -3.552,0 0,-2.163 L 0,-4.926 0,0 z"
         style="fill:#ffffff;fill-opacity:1;fill-rule:nonzero;stroke:none"
         id="path26436"
         inkscape:connector-curvature="0" /></g><g
       id="g26438"
       transform="matrix(8.8585623,0,0,8.8585623,1756.2288,662.23188)"><path
         d="m 0,0 4.376,0 0,-0.592 -3.692,0 0,-1.584 3.552,0 0,-0.587 -3.552,0 0,-2.163 L 0,-4.926 0,0 z"
         style="fill:none;stroke:#ffffff;stroke-width:0.5;stroke-linecap:butt;stroke-linejoin:miter;stroke-miterlimit:10;stroke-opacity:1;stroke-dasharray:none"
         id="path26440"
         inkscape:connector-curvature="0" /></g><g
       id="g26442"
       transform="matrix(8.8585623,0,0,8.8585623,1805.2706,640.23695)"><path
         d="m 0,0 c 0,-0.384 0.099,-0.879 0.433,-1.256 0.461,-0.538 1.177,-0.711 1.89,-0.711 1.823,0 2.26,1.15 2.26,1.988 0,1.297 -1.038,2.016 -2.385,1.981 C 1.172,1.975 0,1.459 0,0 m 5.289,-0.049 c 0,-1.682 -1.381,-2.526 -2.966,-2.526 -0.719,0 -1.444,0.132 -2.021,0.543 -0.483,0.337 -0.999,0.95 -0.999,1.99 0,1.821 1.5,2.645 2.971,2.645 1.725,-0.008 3.015,-1.02 3.015,-2.652"
         style="fill:#ffffff;fill-opacity:1;fill-rule:nonzero;stroke:none"
         id="path26444"
         inkscape:connector-curvature="0" /></g><g
       id="g26446"
       transform="matrix(8.8585623,0,0,8.8585623,1805.2706,640.23695)"><path
         d="m 0,0 c 0,-0.384 0.099,-0.879 0.433,-1.256 0.461,-0.538 1.177,-0.711 1.89,-0.711 1.823,0 2.26,1.15 2.26,1.988 0,1.297 -1.038,2.016 -2.385,1.981 C 1.172,1.975 0,1.459 0,0 z m 5.289,-0.049 c 0,-1.682 -1.381,-2.526 -2.966,-2.526 -0.719,0 -1.444,0.132 -2.021,0.543 -0.483,0.337 -0.999,0.95 -0.999,1.99 0,1.821 1.5,2.645 2.971,2.645 1.725,-0.008 3.015,-1.02 3.015,-2.652 z"
         style="fill:none;stroke:#ffffff;stroke-width:0.5;stroke-linecap:butt;stroke-linejoin:miter;stroke-miterlimit:10;stroke-opacity:1;stroke-dasharray:none"
         id="path26448"
         inkscape:connector-curvature="0" /></g><g
       id="g26450"
       transform="matrix(8.8585623,0,0,8.8585623,1864.2961,656.98495)"><path
         d="m 0,0 0,-1.786 2.436,0 c 0.382,0 0.873,0.006 1.15,0.377 0.127,0.16 0.167,0.348 0.167,0.523 0,0.188 -0.047,0.376 -0.146,0.524 C 3.385,-0.006 3.027,-0.006 2.706,0 L 0,0 z m -0.691,0.592 3.349,0 C 3.092,0.587 3.613,0.58 4.041,0.195 4.2,0.057 4.479,-0.266 4.479,-0.858 c 0,-1.18 -0.999,-1.34 -1.327,-1.395 l 1.817,-2.081 -0.914,0 -1.668,1.969 -2.38,0 0,-1.969 -0.698,0 0,4.926 z"
         style="fill:#ffffff;fill-opacity:1;fill-rule:nonzero;stroke:none"
         id="path26452"
         inkscape:connector-curvature="0" /></g><g
       id="g26454"
       transform="matrix(8.8585623,0,0,8.8585623,1864.2961,656.98495)"><path
         d="m 0,0 0,-1.786 2.436,0 c 0.382,0 0.873,0.006 1.15,0.377 0.127,0.16 0.167,0.348 0.167,0.523 0,0.188 -0.047,0.376 -0.146,0.524 C 3.385,-0.006 3.027,-0.006 2.706,0 L 0,0 z m -0.691,0.592 3.349,0 C 3.092,0.587 3.613,0.58 4.041,0.195 4.2,0.057 4.479,-0.266 4.479,-0.858 c 0,-1.18 -0.999,-1.34 -1.327,-1.395 l 1.817,-2.081 -0.914,0 -1.668,1.969 -2.38,0 0,-1.969 -0.698,0 0,4.926 z"
         style="fill:none;stroke:#ffffff;stroke-width:0.5;stroke-linecap:butt;stroke-linejoin:miter;stroke-miterlimit:10;stroke-opacity:1;stroke-dasharray:none"
         id="path26456"
         inkscape:connector-curvature="0" /></g><g
       id="g26458"
       transform="matrix(8.8585623,0,0,8.8585623,1915.3542,662.23188)"><path
         d="m 0,0 4.557,0 0,-0.585 -3.866,-3.727 3.936,0 0,-0.614 -4.921,0 0,0.579 3.858,3.741 L 0,-0.606 0,0 z"
         style="fill:#ffffff;fill-opacity:1;fill-rule:nonzero;stroke:none"
         id="path26460"
         inkscape:connector-curvature="0" /></g><g
       id="g26462"
       transform="matrix(8.8585623,0,0,8.8585623,1915.3542,662.23188)"><path
         d="m 0,0 4.557,0 0,-0.585 -3.866,-3.727 3.936,0 0,-0.614 -4.921,0 0,0.579 3.858,3.741 L 0,-0.606 0,0 z"
         style="fill:none;stroke:#ffffff;stroke-width:0.5;stroke-linecap:butt;stroke-linejoin:miter;stroke-miterlimit:10;stroke-opacity:1;stroke-dasharray:none"
         id="path26464"
         inkscape:connector-curvature="0" /></g><g
       id="g26466"
       transform="matrix(8.8585623,0,0,8.8585623,1986.9757,652.7851)"><path
         d="M 0,0 C -0.033,0.083 -0.073,0.167 -0.11,0.25 -0.132,0.313 -0.151,0.377 -0.166,0.439 -0.188,0.377 -0.208,0.307 -0.235,0.237 -0.271,0.146 -0.313,0.063 -0.354,-0.029 l -1.04,-2.043 2.435,0 L 0,0 z m -0.522,1.074 0.74,0 2.526,-4.934 -0.804,0 -0.598,1.216 -3.029,0 -0.6,-1.216 -0.78,0 2.545,4.934 z"
         style="fill:#ffffff;fill-opacity:1;fill-rule:nonzero;stroke:none"
         id="path26468"
         inkscape:connector-curvature="0" /></g><g
       id="g26470"
       transform="matrix(8.8585623,0,0,8.8585623,1986.9757,652.7851)"><path
         d="M 0,0 C -0.033,0.083 -0.073,0.167 -0.11,0.25 -0.132,0.313 -0.151,0.377 -0.166,0.439 -0.188,0.377 -0.208,0.307 -0.235,0.237 -0.271,0.146 -0.313,0.063 -0.354,-0.029 l -1.04,-2.043 2.435,0 L 0,0 z m -0.522,1.074 0.74,0 2.526,-4.934 -0.804,0 -0.598,1.216 -3.029,0 -0.6,-1.216 -0.78,0 2.545,4.934 z"
         style="fill:none;stroke:#ffffff;stroke-width:0.5;stroke-linecap:butt;stroke-linejoin:miter;stroke-miterlimit:10;stroke-opacity:1;stroke-dasharray:none"
         id="path26472"
         inkscape:connector-curvature="0" /></g><path
       d="m 1696.5026,597.39163 -3.136,0 0,66.75812 3.136,0 0,-66.75812 z"
       style="fill:#ffffff;fill-opacity:1;fill-rule:nonzero;stroke:none"
       id="path26474"
       inkscape:connector-curvature="0" /><g
       id="g26476"
       transform="matrix(8.8585623,0,0,8.8585623,1526.2605,597.26318)"><path
         d="m 0,0 3.22,0.003 1.986,3.048 -2.65,0.75 C 1.761,2.619 0,0 0,0"
         style="fill:#ffffff;fill-opacity:1;fill-rule:nonzero;stroke:none"
         id="path26478"
         inkscape:connector-curvature="0" /></g><g
       id="g26480"
       transform="matrix(8.8585623,0,0,8.8585623,1568.9534,608.37536)"><path
         d="m 0,0 1.848,0 2.278,3.525 -7.662,0 C -3.57,3.525 -3.579,3.509 -3.582,3.502 -3.58,3.501 -3.576,3.5 -3.57,3.498 -3.384,3.438 1.424,2.221 1.424,2.221 L 0,0 z"
         style="fill:#ffffff;fill-opacity:1;fill-rule:nonzero;stroke:none"
         id="path26482"
         inkscape:connector-curvature="0" /></g><g
       id="g26484"
       transform="matrix(8.8585623,0,0,8.8585623,1592.1806,608.37536)"><path
         d="m 0,0 1.763,0 2.281,3.525 -1.723,0 L 0,0 z"
         style="fill:#ffffff;fill-opacity:1;fill-rule:nonzero;stroke:none"
         id="path26486"
         inkscape:connector-curvature="0" /></g><g
       id="g26488"
       transform="matrix(8.8585623,0,0,8.8585623,1614.8461,608.31069)"><path
         d="m 0,0 0.006,0 c 0.422,0 1.222,0.053 1.847,0.411 0.548,0.318 1.492,1.804 2.209,3.121 l -1.846,0 L 0,0 z"
         style="fill:#ffffff;fill-opacity:1;fill-rule:nonzero;stroke:none"
         id="path26490"
         inkscape:connector-curvature="0" /></g><g
       id="g26492"
       transform="matrix(8.8585623,0,0,8.8585623,1558.1743,645.53969)"><path
         d="m 0,0 c 0,0 9.162,0.001 9.639,0.001 1.203,0 2.175,1.505 2.504,2.086 L 3.773,2.088 C 1.35,2.088 0.313,0.586 0,0"
         style="fill:#ffffff;fill-opacity:1;fill-rule:nonzero;stroke:none"
         id="path26494"
         inkscape:connector-curvature="0" /></g><g
       id="g26496"
       transform="matrix(8.8585623,0,0,8.8585623,2240.638,463.99143)"><path
         d="m 0,0 -59.901,-0.004 2.245,14.96 L 2.335,14.958 0,0 z"
         style="fill:#ea0c80;fill-opacity:1;fill-rule:nonzero;stroke:none"
         id="path26498"
         inkscape:connector-curvature="0" /></g><g
       id="g26500"
       transform="matrix(8.8585623,0,0,8.8585623,2240.638,463.99143)"><path
         d="m 0,0 -59.901,-0.004 2.245,14.96 L 2.335,14.958 0,0 z"
         style="fill:none;stroke:#ec008c;stroke-width:1;stroke-linecap:butt;stroke-linejoin:miter;stroke-miterlimit:10;stroke-opacity:1;stroke-dasharray:none"
         id="path26502"
         inkscape:connector-curvature="0" /></g><g
       id="g26504"
       transform="matrix(8.8585623,0,0,8.8585623,1777.8995,479.46822)"><path
         d="m 0,0 0.744,4.694 -1.488,0 L -1.487,0 l -3.129,0 1.832,11.565 3.129,0 -0.657,-4.141 1.489,0 0.656,4.141 3.129,0 L 3.13,0 0,0 z"
         style="fill:#ffffff;fill-opacity:1;fill-rule:nonzero;stroke:none"
         id="path26506"
         inkscape:connector-curvature="0" /></g><g
       id="g26508"
       transform="matrix(8.8585623,0,0,8.8585623,1851.6922,503.51302)"><path
         d="m 0,0 c 1.181,0 1.599,2.347 1.713,3.068 0.114,0.72 0.44,3.068 -0.741,3.068 -1.181,0 -1.599,-2.347 -1.713,-3.068 C -0.854,2.347 -1.181,0 0,0 m 1.435,9.05 c 3.173,0 3.916,-3.16 3.468,-5.983 -0.447,-2.822 -2.19,-5.982 -5.365,-5.982 -3.176,10e-4 -3.917,3.161 -3.471,5.983 0.45,2.822 2.191,5.982 5.368,5.982"
         style="fill:#ffffff;fill-opacity:1;fill-rule:nonzero;stroke:none"
         id="path26510"
         inkscape:connector-curvature="0" /></g><g
       id="g26512"
       transform="matrix(8.8585623,0,0,8.8585623,1928.3391,534.49229)"><path
         d="M 0,0 C 0.828,0 1.388,0.72 1.507,1.472 1.667,2.484 1.122,2.914 0.255,2.868 L -0.196,0.015 0,0 z m 0.535,-6.212 -0.972,4.816 -0.035,-0.031 c -0.074,-0.567 -0.132,-1.135 -0.222,-1.702 l -0.491,-3.083 -3.128,0 1.834,11.565 3.02,0 c 2.715,0 4.552,-0.798 4.067,-3.851 -0.2,-1.273 -0.932,-2.408 -2.254,-2.898 l 1.571,-4.817 -3.39,0.001 z"
         style="fill:#ffffff;fill-opacity:1;fill-rule:nonzero;stroke:none"
         id="path26514"
         inkscape:connector-curvature="0" /></g><g
       id="g26516"
       transform="matrix(8.8585623,0,0,8.8585623,1966.0916,479.45493)"><path
         d="m 0,0 1.832,11.565 3.129,0 L 3.13,0 0,0 z"
         style="fill:#ffffff;fill-opacity:1;fill-rule:nonzero;stroke:none"
         id="path26518"
         inkscape:connector-curvature="0" /></g><g
       id="g26520"
       transform="matrix(8.8585623,0,0,8.8585623,1995.9813,479.45493)"><path
         d="M 0,0 4.323,7.347 C 4.619,7.853 5.059,8.405 5.464,8.926 4.846,8.896 4.146,8.834 3.471,8.834 l -1.381,0 0.431,2.731 7.657,-10e-4 L 5.502,3.65 C 5.291,3.282 5.053,2.944 4.844,2.592 5.419,2.638 6.016,2.729 6.614,2.729 l 1.779,0 L 7.961,-0.001 0,0 z"
         style="fill:#ffffff;fill-opacity:1;fill-rule:nonzero;stroke:none"
         id="path26522"
         inkscape:connector-curvature="0" /></g><g
       id="g26524"
       transform="matrix(8.8585623,0,0,8.8585623,2108.0882,503.49618)"><path
         d="M 0,0 C 1.183,0 1.599,2.347 1.713,3.068 1.827,3.789 2.153,6.135 0.972,6.135 -0.21,6.136 -0.627,3.789 -0.741,3.068 -0.854,2.347 -1.183,0 0,0 M 1.435,9.05 C 4.608,9.049 5.351,5.89 4.903,3.067 4.456,0.245 2.714,-2.915 -0.462,-2.915 -3.638,-2.914 -4.379,0.246 -3.933,3.068 -3.485,5.89 -1.742,9.05 1.435,9.05"
         style="fill:#ffffff;fill-opacity:1;fill-rule:nonzero;stroke:none"
         id="path26526"
         inkscape:connector-curvature="0" /></g><g
       id="g26528"
       transform="matrix(8.8585623,0,0,8.8585623,2162.7624,581.89535)"><path
         d="m 0,0 2.976,0 1.397,-6.964 0.035,0.03 c 0.089,1.335 0.07,2.654 0.28,3.988 L 5.153,0 8.16,-0.001 6.328,-11.566 l -3.007,0 -1.274,6.672 -0.034,-0.03 C 1.915,-6.013 1.884,-7.087 1.711,-8.176 l -0.537,-3.389 -3.006,0 L 0,0 z"
         style="fill:#ffffff;fill-opacity:1;fill-rule:nonzero;stroke:none"
         id="path26530"
         inkscape:connector-curvature="0" /></g></g></svg>